<?xml version="1.0" encoding="UTF-8"?>
<svg id="_レイヤー_1" data-name="レイヤー 1" xmlns="http://www.w3.org/2000/svg" viewBox="0 0 1000 1000">
  <defs>
    <style>
      .cls-1 {
        fill: #fff;
      }

      .cls-2 {
        fill: #00b8d4;
      }
    </style>
  </defs>
  <circle class="cls-2" cx="500" cy="500" r="500"/>
  <path class="cls-1" d="M677.03,582.63v-166.24c0-43.58-8.54-81.57-25.63-113.99-17.08-32.42-41.09-57.56-72.02-75.46-30.94-17.89-67.13-26.83-108.55-26.83s-77.61,8.94-108.55,26.83c-30.94,17.89-54.94,43.04-72.02,75.46-17.09,32.42-25.63,70.41-25.63,113.99v166.24c0,43.32,8.54,81.25,25.63,113.79,17.08,32.55,41.09,57.77,72.02,75.66,30.94,17.89,67.12,26.84,108.55,26.84,1.3,0,2.59,0,3.87-.02h190.25l-32.48-81.08h-161.64c-36.59,0-66.04-12.11-88.37-36.32-21.6-23.41-32.74-54.11-33.45-92.1l44.06-130.75,48.34,144.77,65.27.66,39.76-146.18,61.96,154.71h.17l75.05,187.38,86.18.13-92.78-217.48ZM382.47,317.33c22.33-24.07,51.78-36.12,88.37-36.12s66.38,12.05,88.57,36.12c19.61,21.28,30.56,48.81,32.84,82.59l-.19-.47h-94.25l-24.16,96.46-26.33-96.46h-97.86c2.36-33.57,13.36-60.94,33-82.12Z"/>
</svg>